<?xml version="1.0" encoding="utf-8"?>
<!-- Generator: Adobe Illustrator 21.0.0, SVG Export Plug-In . SVG Version: 6.00 Build 0)  -->
<svg version="1.1" id="Layer_1" xmlns="http://www.w3.org/2000/svg" xmlns:xlink="http://www.w3.org/1999/xlink" x="0px" y="0px"
	 viewBox="0 0 538.3 531.5" style="enable-background:new 0 0 538.3 531.5;" xml:space="preserve">
<style type="text/css">
	.st0{fill:#DF4C40;}
	.st1{fill:#2E3192;}
	.st2{fill:#78AD3B;}
	.st3{fill:#297DD9;}
</style>
<path id="coral" class="st0" d="M259.2,433.2C139.1,490.6,0,403.3,0,271S139.1,51.4,259.2,108.9v83.6C189.1,131.7,75,175.4,74.9,271
	c-0.1,94.4,114.6,141,184.2,79L259.2,433.2z"/>
<path id="purple" class="st1" d="M441.3,272.4c57.4,120.1-29.9,259.2-162.2,259.2S59.5,392.4,116.9,272.4h83.6
	c-60.8,70-17.1,184.1,78.5,184.2c94.5,0.1,141-114.6,79-184.2L441.3,272.4z"/>
<path id="green" class="st2" d="M279.1,108.9C399.2,51.4,538.3,138.7,538.3,271S399.1,490.6,279.1,433.2v-83.6
	c70,60.8,184.1,17.1,184.2-78.5c0.1-94.5-114.6-141-184.2-79L279.1,108.9L279.1,108.9z"/>
<path id="top-blue-left" class="st3" d="M100.2,200.5c2.4,20.2,8,39.9,16.7,58.3H200c-23-25-31.7-62.5-27.1-94.7
	C144.7,165.7,118.4,178.9,100.2,200.5C102.6,221.4,117.8,179.6,100.2,200.5z"/>
<path id="top-blue-right" class="st3" d="M279.1,0C205,0,143.6,40.7,115.5,102.1c32-11.4,66.5-14,99.9-7.4
	c106.5-75,226.2,68.1,142.2,164.1h83.6C498.8,137.8,411.4,0,279.1,0z"/>
</svg>
